<svg width="1024" height="1024" viewBox="0 0 1024 1024" fill="none" xmlns="http://www.w3.org/2000/svg">
<path d="M115.411 423.711C113.667 416.188 119.379 409 127.101 409H896.899C904.621 409 910.333 416.188 908.589 423.711L898.154 468.711C896.893 474.149 892.047 478 886.464 478H137.536C131.953 478 127.107 474.149 125.846 468.711L115.411 423.711Z" fill="black"/>
<path d="M135.65 719.03C123.159 716.413 115.871 703.352 120.203 691.347L204.16 458.728C208.493 446.724 222.443 441.328 233.726 447.291C242.98 452.183 247.219 463.141 243.666 472.987L159.709 705.606C156.155 715.451 145.895 721.177 135.65 719.03Z" fill="black"/>
<path d="M888.219 719.03C900.71 716.413 907.999 703.352 903.666 691.347L819.709 458.728C815.376 446.724 801.426 441.328 790.143 447.291C780.889 452.183 776.65 463.141 780.203 472.987L864.16 705.606C867.714 715.451 877.975 721.177 888.219 719.03Z" fill="black"/>
</svg>
