<svg width="1024" height="1024" viewBox="0 0 1024 1024" fill="none" xmlns="http://www.w3.org/2000/svg">
<circle cx="584.266" cy="196.185" r="121.362" fill="black"/>
<path d="M820.964 302.484C820.964 321.898 806.047 348.822 761.249 373.389C718.027 397.091 655.383 413.087 583.836 413.087C512.288 413.087 449.644 397.091 406.423 373.389C361.624 348.822 346.707 321.898 346.707 302.484C346.707 283.071 361.624 256.147 406.423 231.58C449.644 207.878 512.288 191.882 583.836 191.882C655.383 191.882 718.027 207.878 761.249 231.58C806.047 256.147 820.964 283.071 820.964 302.484Z" stroke="black" stroke-width="86.072"/>
<rect x="471.001" y="367.469" width="207.707" height="339.826" transform="rotate(18.1857 471.001 367.469)" fill="black"/>
<path d="M526.685 720.364L160.792 950.176" stroke="black" stroke-width="103.286" stroke-linecap="round"/>
<path d="M450.487 661.672L291.067 634.457C274.247 631.586 258.889 644.544 258.889 661.607L258.888 828.815" stroke="black" stroke-width="103.286" stroke-linecap="round"/>
</svg>
