<svg width="1024" height="1024" viewBox="0 0 1024 1024" fill="none" xmlns="http://www.w3.org/2000/svg">
<g clip-path="url(#clip0_1_2)">
<path d="M37.9004 526.579C27.1493 520.327 27.3287 504.737 38.2207 498.734L504.277 241.888C509.085 239.239 514.915 239.239 519.723 241.888L985.779 498.734C996.671 504.737 996.851 520.327 986.1 526.579L520.043 797.587C515.071 800.478 508.929 800.478 503.957 797.587L37.9004 526.579Z" stroke="black" stroke-width="32"/>
<path d="M127.597 524.633C118.248 519.196 118.404 505.639 127.875 500.42L505.285 292.427C509.465 290.124 514.535 290.124 518.715 292.427L896.125 500.42C905.596 505.639 905.752 519.196 896.403 524.633L518.994 744.093C514.67 746.607 509.33 746.607 505.006 744.093L127.597 524.633Z" stroke="black" stroke-width="24"/>
</g>
<defs>
<clipPath id="clip0_1_2">
<rect width="1024" height="1024" fill="white"/>
</clipPath>
</defs>
</svg>
