<svg width="1024" height="1024" viewBox="0 0 1024 1024" fill="none" xmlns="http://www.w3.org/2000/svg">
<path d="M258 99L794.514 210.085" stroke="black" stroke-width="32" stroke-linecap="round"/>
<path d="M258 99L258 715.87" stroke="black" stroke-width="48" stroke-linecap="round"/>
<path d="M795 210L795 826.87" stroke="black" stroke-width="48" stroke-linecap="round"/>
<path d="M1002.27 779.433C1003.06 781.495 1005.37 782.526 1007.43 781.735C1009.5 780.943 1010.53 778.63 1009.73 776.567L1002.27 779.433ZM791.265 229.433L1002.27 779.433L1009.73 776.567L798.735 226.567L791.265 229.433Z" fill="black"/>
<path d="M862.021 908.409C862.247 910.607 864.212 912.205 866.409 911.979C868.607 911.753 870.205 909.788 869.979 907.591L862.021 908.409ZM791.021 218.409L862.021 908.409L869.979 907.591L798.979 217.591L791.021 218.409Z" fill="black"/>
<path d="M187.032 578.498C186.754 580.689 188.306 582.691 190.498 582.968C192.689 583.246 194.691 581.694 194.968 579.502L187.032 578.498ZM247.773 98.4978L187.032 578.498L194.968 579.502L255.709 99.5022L247.773 98.4978Z" fill="black"/>
<path d="M29.2695 678.557C28.4723 680.617 29.4963 682.933 31.5566 683.73C33.6169 684.528 35.9334 683.504 36.7305 681.443L29.2695 678.557ZM253.962 97.8174L29.2695 678.557L36.7305 681.443L261.423 100.704L253.962 97.8174Z" fill="black"/>
</svg>
