<svg width="1024" height="1024" viewBox="0 0 1024 1024" fill="none" xmlns="http://www.w3.org/2000/svg">
<path d="M167.376 130.599L991.86 238.201" stroke="black" stroke-width="26.9309" stroke-linecap="round"/>
<path d="M32.1403 150.064L858.448 253.964" stroke="black" stroke-width="26.9309" stroke-linecap="round"/>
<path d="M212.932 186.176C207.395 186.176 202.907 190.664 202.907 196.201V196.201C202.907 198.431 202.164 200.597 200.795 202.356L192.632 212.852C190.961 215 190.053 217.645 190.053 220.367V367.689C190.053 370.627 188.997 373.467 187.076 375.691L181.401 382.262C179.481 384.486 178.424 387.326 178.424 390.264V844.759C178.424 851.519 183.905 857 190.665 857H206.579C213.34 857 218.82 851.519 218.82 844.759V384.669C218.82 381.091 217.116 377.726 214.23 375.61V375.61C211.344 373.494 209.639 370.13 209.639 366.551V231.689C209.639 227.053 212.259 222.814 216.406 220.74L218.786 219.55C222.933 217.477 225.553 213.238 225.553 208.601V197.499C225.553 191.245 220.484 186.176 214.23 186.176H212.932Z" fill="black" stroke="black" stroke-width="1.22413"/>
<path d="M753.718 247.994C749.526 247.994 746.127 251.393 746.127 255.585V255.585C746.127 257.586 745.337 259.505 743.93 260.926L736.65 268.278C734.38 270.57 733.107 273.666 733.107 276.892V390.62C733.107 394.068 731.652 397.356 729.101 399.676L725.332 403.105C722.781 405.425 721.326 408.713 721.326 412.161V769.475C721.326 776.235 726.807 781.716 733.568 781.716H750.006C756.767 781.716 762.247 776.235 762.247 769.475V406.757C762.247 403.437 760.474 400.369 757.597 398.712V398.712C754.72 397.055 752.947 393.988 752.947 390.668V286.531C752.947 281.497 756.029 276.977 760.714 275.137L761.301 274.906C765.986 273.066 769.068 268.546 769.068 263.512V259.465C769.068 253.13 763.932 247.994 757.597 247.994H753.718Z" fill="black" stroke="black" stroke-width="1.22413"/>
<path d="M891.392 232.081C886.884 232.081 883.23 235.735 883.23 240.243V240.243C883.23 242.309 882.446 244.298 881.037 245.809L873.498 253.894C871.385 256.16 870.209 259.143 870.209 262.242V384.092C870.209 387.413 868.861 390.591 866.472 392.897L862.167 397.055C859.778 399.362 858.429 402.54 858.429 405.861V786.612C858.429 793.373 863.91 798.854 870.671 798.854H887.109C893.87 798.854 899.35 793.373 899.35 786.612V400.427C899.35 397.041 897.589 393.899 894.7 392.132V392.132C891.811 390.365 890.05 387.223 890.05 383.837V272.301C890.05 267.36 893.02 262.904 897.58 261.003L898.641 260.56C903.201 258.659 906.17 254.202 906.17 249.262V243.551C906.17 237.216 901.035 232.081 894.7 232.081H891.392Z" fill="black" stroke="black" stroke-width="1.22413"/>
<path d="M355.162 150.064C349.335 150.064 344.612 154.787 344.612 160.614V160.614C344.612 162.905 343.866 165.133 342.488 166.963L334.056 178.152C332.457 180.275 331.592 182.861 331.592 185.519V340.175C331.592 343.047 330.582 345.827 328.739 348.03L322.664 355.291C320.821 357.493 319.811 360.274 319.811 363.146V839.25C319.811 846.011 325.292 851.491 332.053 851.491H348.491C355.252 851.491 360.732 846.011 360.732 839.25V357.493C360.732 353.819 359.011 350.358 356.082 348.14V348.14C353.153 345.923 351.432 342.462 351.432 338.788V197.201C351.432 192.621 353.989 188.424 358.059 186.323L360.925 184.844C364.995 182.743 367.552 178.546 367.552 173.966V161.534C367.552 155.199 362.417 150.064 356.082 150.064H355.162Z" fill="black" stroke="black" stroke-width="1.22413"/>
</svg>
