<svg width="1024" height="1024" viewBox="0 0 1024 1024" fill="none" xmlns="http://www.w3.org/2000/svg">
<path d="M347.942 406.46C344.698 407.083 342.104 409.522 341.282 412.722L318.885 499.974L295.143 582.507L224.874 826.774C223.822 830.432 220.476 832.951 216.669 832.951H38.8216C34.1063 832.951 30.2838 836.774 30.2838 841.489V853.585C30.2838 858.3 34.1063 862.123 38.8216 862.123H222.113C222.767 862.123 223.419 862.198 224.056 862.347L277.882 874.929L511.794 964.305C514.553 965.359 517.661 964.912 520.011 963.124L536.967 950.223C542.246 946.206 541.127 937.965 534.968 935.501L303.636 842.968C299.529 841.326 297.357 836.819 298.631 832.583L427.505 403.906C429.352 397.763 424.018 391.854 417.719 393.063L347.942 406.46Z" fill="black"/>
<path d="M274.641 417.442C269.298 417.442 265.268 422.293 266.248 427.545L295.143 582.507L318.885 499.974L305.46 424.485C304.735 420.41 301.192 417.442 297.054 417.442H274.641Z" fill="black"/>
<path d="M295.143 582.507L224.874 826.774C223.822 830.432 220.476 832.951 216.669 832.951H38.8216C34.1063 832.951 30.2838 836.774 30.2838 841.489V853.585C30.2838 858.3 34.1063 862.123 38.8216 862.123H222.113C222.767 862.123 223.419 862.198 224.056 862.347L277.882 874.929L511.794 964.305C514.553 965.359 517.661 964.912 520.011 963.124L536.967 950.223C542.246 946.206 541.127 937.965 534.968 935.501L303.636 842.968C299.529 841.326 297.357 836.819 298.631 832.583L427.505 403.906C429.352 397.763 424.018 391.854 417.719 393.063L347.942 406.46C344.698 407.083 342.104 409.522 341.282 412.722L318.885 499.974M295.143 582.507L266.248 427.545C265.268 422.293 269.298 417.442 274.641 417.442H297.054C301.192 417.442 304.735 420.41 305.46 424.485L318.885 499.974M295.143 582.507L318.885 499.974" stroke="black" stroke-width="1.42298"/>
<path d="M672.268 366.455C667.237 367.461 664.224 372.646 665.839 377.516L761.722 666.495C763.498 671.848 759.689 677.421 754.057 677.711L586.324 686.329C585.608 686.366 584.899 686.493 584.215 686.707L567.449 691.946C564.491 692.87 562.478 695.609 562.478 698.707V698.707C562.478 702.542 565.53 705.68 569.363 705.788L789.819 711.969C790.515 711.988 791.205 712.093 791.874 712.28L982.873 765.566C985.602 766.327 988.531 765.685 990.692 763.852L999.347 756.508C1004.38 752.238 1002.87 744.117 996.642 741.938L841.954 687.829C839.361 686.922 837.363 684.823 836.585 682.189L779.286 488.2C778.946 487.05 778.853 485.842 779.011 484.653L795.726 359.295C796.489 353.565 791.459 348.749 785.768 349.76L770.848 352.413C767.459 353.015 764.763 355.594 764.011 358.954L754.58 401.077L739.99 360.346C738.562 356.36 734.429 354.023 730.277 354.853L672.268 366.455Z" fill="black" stroke="black" stroke-width="1.42298"/>
<rect x="404.527" y="155.614" width="126.645" height="85.3787" rx="28.4596" stroke="black" stroke-width="25.6136"/>
<rect x="572.439" y="141.384" width="126.645" height="85.3787" rx="28.4596" stroke="black" stroke-width="25.6136"/>
<path d="M778.105 181.602C780.913 181.352 783.739 181.391 786.539 181.717L852.452 189.401C876.901 192.251 893.434 215.733 887.874 239.711L870.54 314.465C866.689 331.073 853.02 343.604 836.14 346L288.105 423.793C284.535 424.3 280.914 424.337 277.334 423.902L196.555 414.099C178.176 411.869 163.532 397.671 160.734 379.37L145.798 281.679C142.194 258.108 159.259 236.397 183.015 234.331L286.42 225.339L778.105 181.602Z" fill="black"/>
</svg>
