<svg width="1024" height="1024" viewBox="0 0 1024 1024" fill="none" xmlns="http://www.w3.org/2000/svg">
<path d="M315.576 93L315.576 546.828" stroke="black" stroke-width="38.5222" stroke-linecap="round"/>
<path d="M444.521 722.232C444.521 810.161 383.674 875.781 315.102 875.781C246.529 875.781 185.683 810.161 185.683 722.232C185.683 634.303 246.529 568.683 315.102 568.683C383.674 568.683 444.521 634.303 444.521 722.232Z" stroke="black" stroke-width="43.3655"/>
<path d="M710.372 93L710.372 546.828" stroke="black" stroke-width="38.5222" stroke-linecap="round"/>
<path d="M839.317 722.232C839.317 810.161 778.471 875.781 709.898 875.781C641.326 875.781 580.479 810.161 580.479 722.232C580.479 634.303 641.326 568.683 709.898 568.683C778.471 568.683 839.317 634.303 839.317 722.232Z" stroke="black" stroke-width="43.3655"/>
<path d="M165 67H859" stroke="black" stroke-width="54.017" stroke-linecap="round"/>
</svg>
