<svg width="1024" height="1024" viewBox="0 0 1024 1024" fill="none" xmlns="http://www.w3.org/2000/svg">
<path d="M52.3729 757.315H296.347" stroke="black" stroke-width="42.8966" stroke-linecap="round"/>
<path d="M726.653 757.315H970.627" stroke="black" stroke-width="42.8966" stroke-linecap="round"/>
<path d="M312.433 766.698C312.433 728.2 343.642 696.991 382.14 696.991H640.86C679.358 696.991 710.567 728.2 710.567 766.698V806.914H312.433V766.698Z" stroke="black" stroke-width="32.1724"/>
<mask id="path-4-inside-1_1_46" fill="white">
<path d="M296.347 345.776C296.347 381.313 325.155 410.121 360.692 410.121H662.308C697.845 410.121 726.653 381.313 726.653 345.776V222.448C726.653 210.603 717.05 201 705.205 201H317.795C305.95 201 296.347 210.603 296.347 222.448V345.776Z"/>
</mask>
<path d="M296.347 345.776C296.347 381.313 325.155 410.121 360.692 410.121H662.308C697.845 410.121 726.653 381.313 726.653 345.776V222.448C726.653 210.603 717.05 201 705.205 201H317.795C305.95 201 296.347 210.603 296.347 222.448V345.776Z" stroke="black" stroke-width="64.3448" mask="url(#path-4-inside-1_1_46)"/>
<rect x="419.675" y="398.056" width="183.651" height="282.849" fill="black"/>
<line x1="311.093" y1="270.707" x2="713.248" y2="270.707" stroke="black" stroke-width="21.4483"/>
</svg>
