<svg width="1024" height="1024" viewBox="0 0 1024 1024" fill="none" xmlns="http://www.w3.org/2000/svg">
<circle cx="502" cy="524" r="97" fill="#5CA05C"/>
<path d="M618.44 918.5H392.015C395.92 918.278 369.213 748.481 365.5 744.5C361.782 740.514 15.5 351 15.5 351C14.6667 346.667 14.9 338 22.5 338C29.9268 338.49 41.1401 341.257 41 342C50.9056 345.159 71.779 356.79 71 358C70.221 359.21 416.5 637 416.5 637C484.227 672.448 523.102 669.4 593.5 637L948 350.5C959.914 343.803 966.562 341.036 978.5 338C985.909 336.117 989.249 336.422 991 344C990.517 351.601 989.065 355.376 985 361.5C853.198 511.071 649.184 734.595 647.5 744.5C645.835 754.298 616.942 916.729 618.44 918.5H618.5C618.476 918.52 618.456 918.519 618.44 918.5Z" fill="#5CA05C"/>
<path d="M392 918.5H618.5C616.307 920.303 645.816 754.405 647.5 744.5C649.184 734.595 853.198 511.071 985 361.5C989.065 355.376 990.517 351.601 991 344C989.249 336.422 985.909 336.117 978.5 338C966.562 341.036 959.914 343.803 948 350.5L593.5 637C523.102 669.4 484.227 672.448 416.5 637C416.5 637 70.221 359.21 71 358C71.779 356.79 50.9056 345.159 41 342C41.1401 341.257 29.9268 338.49 22.5 338C14.9 338 14.6667 346.667 15.5 351C15.5 351 361.782 740.514 365.5 744.5C369.218 748.486 395.99 918.723 392 918.5Z" stroke="#5CA05C" stroke-width="2"/>
<path d="M889.5 120.905V131.905C848.641 242.218 827.964 302.024 783 413.905C779.5 420 773.815 425.001 763 427.405C758.5 428.405 739.083 428.766 729.5 426.405C693.64 417.568 650.472 398.542 620.5 388.905C586.75 378.053 567 373.905 511 369.905C478.5 369.905 435.083 378.349 404 388.905C327.122 410.4 271.555 433.012 233.5 424.405C223.136 421.899 218.98 418.359 214 408.905C171.638 300.568 148.952 239.131 111 127.905C111.28 125.361 111.82 124.044 113.5 121.905C117.04 119.226 129.784 120.03 132.5 121.905C250.565 203.693 310.08 247.202 331.5 252.405C344.133 255.897 351.48 255.813 365 252.405C395.9 245.916 423.408 188.632 492.5 38.4046C500.897 28.9666 505.603 28.1064 514 38.4046C579.475 190.386 609.401 247.742 639 252.405H657.5H681L872 120.905H889.5Z" fill="#5CA05C" stroke="#5CA05C"/>
</svg>
